<svg width="16" height="16" viewBox="0 0 16 16" fill="none" xmlns="http://www.w3.org/2000/svg">
<g clip-path="url(#clip0_41_4738)">
<path d="M8.0001 0.53125C12.1251 0.53125 15.4626 3.86875 15.4626 7.9875C15.4626 12.1063 12.1251 15.45 8.0001 15.45C3.8751 15.45 0.537598 12.1125 0.537598 7.99375C0.537598 3.875 3.8751 0.53125 8.0001 0.53125Z" fill="#FCAFE5"/>
<path d="M8 14C4.69063 14 2 11.3109 2 8.00235C2 4.68909 4.69063 2 8 2C11.3094 2 14 4.68909 14 7.99765C14 11.3062 11.3094 14 8 14ZM13.0578 8.81893C12.8844 8.76261 11.4734 8.34494 9.86563 8.59836C10.5359 10.438 10.8078 11.9398 10.8594 12.2495C12.0125 11.4752 12.8328 10.2456 13.0578 8.81893ZM10.0016 12.7235C9.92656 12.273 9.62656 10.7055 8.90937 8.8377C8.9 8.84239 8.88594 8.84709 8.87656 8.84709C5.98437 9.85608 4.94844 11.86 4.85469 12.0477C5.72188 12.7235 6.81406 13.1271 8 13.1271C8.70781 13.1318 9.3875 12.9863 10.0016 12.7235ZM4.19375 11.4329C4.31094 11.2358 5.71719 8.9081 8.36094 8.04928C8.42656 8.02581 8.49688 8.00704 8.5625 7.98827C8.43594 7.6973 8.29531 7.40634 8.14531 7.12006C5.58594 7.88502 3.10156 7.85217 2.87656 7.84748C2.87656 7.8991 2.87188 7.95072 2.87188 8.00235C2.87656 9.32108 3.37344 10.5225 4.19375 11.4329ZM2.98438 6.95581C3.21406 6.9605 5.32344 6.96989 7.72344 6.33164C6.875 4.82049 5.95625 3.55338 5.825 3.37036C4.38594 4.04615 3.31719 5.36957 2.98438 6.95581ZM6.8 3.02307C6.94063 3.21079 7.87344 4.4779 8.7125 6.0219C10.5359 5.33672 11.3047 4.30426 11.3984 4.17286C10.4938 3.37036 9.30312 2.88228 8 2.88228C7.5875 2.88228 7.18438 2.93391 6.8 3.02307ZM11.9656 4.76418C11.8578 4.90966 11 6.01251 9.10625 6.78686C9.22344 7.0309 9.34062 7.27962 9.44844 7.52835C9.48594 7.61752 9.52344 7.70669 9.56094 7.79116C11.2672 7.57528 12.9594 7.92257 13.1281 7.95542C13.1141 6.74932 12.6828 5.63707 11.9656 4.76418Z" fill="#B55698"/>
</g>
<defs>
<clipPath id="clip0_41_4738">
<rect width="16" height="16" fill="white"/>
</clipPath>
</defs>
</svg>
